<?xml version="1.0" encoding="UTF-8"?>
<svg id="Capa_1" data-name="Capa 1" xmlns="http://www.w3.org/2000/svg" viewBox="0 0 491.52 153.69">
  <defs>
    <style>
      .cls-1 {
        fill: #fff;
      }
    </style>
  </defs>
  <g>
    <path class="cls-1" d="M168.34,84.44c-5.5,0-10.54-1.6-14.77-4.35v29.66h-12.71v-54.86h.11c1.03-14.2,12.83-25.31,27.37-25.31s27.37,12.25,27.37,27.37-12.25,27.49-27.37,27.49ZM183.11,56.95c0-8.13-6.64-14.77-14.77-14.77s-14.77,6.64-14.77,14.77,6.53,14.77,14.77,14.77,14.77-6.53,14.77-14.77Z"/>
    <path class="cls-1" d="M230.98,67.72c-.69-.11-1.37-.23-2.06-.23-4.12,0-7.79,1.72-10.54,4.35-2.63,2.75-4.24,6.41-4.24,10.42v27.49h-12.71v-27.49c0-9.62,5.04-18.21,12.71-23.02,4.24-2.75,9.28-4.35,14.77-4.35.69,0,1.37,0,2.06.11v12.71Z"/>
    <path class="cls-1" d="M291.56,82.26c0,15.23-12.25,27.49-27.37,27.49s-27.48-12.25-27.48-27.49,12.25-27.37,27.48-27.37,27.37,12.25,27.37,27.37ZM264.2,67.49c-8.24,0-14.77,6.64-14.77,14.77s6.53,14.77,14.77,14.77,14.77-6.53,14.77-14.77-6.64-14.77-14.77-14.77Z"/>
    <path class="cls-1" d="M324.78,109.74c-5.5,0-10.54-1.6-14.77-4.35v29.66h-12.71v-54.86h.11c1.03-14.2,12.83-25.31,27.37-25.31s27.37,12.25,27.37,27.37-12.25,27.49-27.37,27.49ZM339.55,82.26c0-8.13-6.64-14.77-14.77-14.77s-14.77,6.64-14.77,14.77,6.53,14.77,14.77,14.77,14.77-6.53,14.77-14.77Z"/>
    <path class="cls-1" d="M374.71,37.94c0,4.7-3.78,8.47-8.36,8.47s-8.47-3.78-8.47-8.47,3.78-8.36,8.47-8.36,8.36,3.78,8.36,8.36ZM366.35,54.89h6.3v48.56c0,3.44-2.86,6.3-6.3,6.3h-6.41v-48.56c0-3.44,2.86-6.3,6.41-6.3Z"/>
    <path class="cls-1" d="M422.47,54.89v-.34c0-.11-.11-.23-.11-.34-1.03-5.96-6.18-10.99-12.25-11.8-.11,0-.23,0-.23-.11h-1.15q-.11,0-.11-.11h-1.49q0,.11-.11.11h-1.15c0,.11-.11.11-.23.11h-.34c-.11.11-.23.11-.34.11h-.34c0,.11-.11.11-.11.11-.23,0-.46.11-.69.11-.23.11-.46.11-.69.23-5.15,1.72-9.16,6.53-9.85,11.91,0,.23-.11.46-.11.69v11.91h25.31v12.71h-25.31v23.25c0,3.44-2.86,6.3-6.41,6.3h-6.3v-54.86h.11c1.03-14.2,12.83-25.31,27.37-25.31,2.41,0,4.81.34,7.1.92,5.73,1.49,10.77,5.95,14.32,11.11,3.89,5.61,0,13.28-6.87,13.28Z"/>
    <path class="cls-1" d="M491.52,54.89v52.8c0,.69,0,1.37-.11,2.06v.69c0,.34-.11.69-.11,1.03,0,.11,0,.23-.11.34v.34l-.11.34v.34c-.11.57-.23,1.14-.34,1.6-.11.11-.11.23-.11.34v.11c-.11.11-.11.34-.23.46,0,.34-.11.69-.23,1.03-.11.23-.23.46-.23.69-.11.23-.23.46-.23.57-.11.11-.11.23-.23.34-.11.46-.34.92-.57,1.37,0,.11-.11.23-.11.23-.23.46-.46.92-.69,1.37-.11.11-.11.23-.23.34-.11.23-.34.57-.46.8-.11.11-.11.23-.23.34-.11.23-.34.57-.46.8-.11.11-.23.11-.23.23-.34.46-.57.8-.92,1.26-.11,0-.11.11-.23.23,0,.11-.11.11-.23.23-.23.34-.46.57-.69.92-.11,0-.11.11-.23.11-.11.23-.34.46-.46.57-.11.11-.23.23-.23.23-.46.46-.92.92-1.49,1.37l-.11.11c-.11.11-.23.23-.34.23l-.23.23c-.11.11-.23.23-.34.23-.23.23-.34.34-.57.46-.11.11-.23.23-.34.23q-.11.11-.23.23c-.34.23-.69.46-.92.57-.11.11-.23.23-.34.23q-.11.11-.23.11c-.23.23-.46.34-.69.46-.11.11-.23.11-.34.23h-.11c-.11.11-.23.11-.34.23-.34.11-.57.23-.8.34q-.11.11-.23.11c-.23.11-.57.23-.8.34-.11.11-.23.11-.34.11-.11.11-.34.23-.57.34-.11,0-.23,0-.34.11-.23,0-.34.11-.46.11-.34.11-.69.23-1.03.34-.11.11-.23.11-.34.11-.34.11-.69.23-.92.34h-.34c-.11,0-.11.11-.23.11h-.34l-.11.11h-.46c-.34.11-.57.11-.92.23-.23,0-.34,0-.46.11h-.57c-.11,0-.34.11-.46.11h-.92c-.11.11-.34.11-.46.11h-1.6c-7.67,0-14.43-3.09-19.47-8.02-.11-.11-.23-.23-.34-.46-.11-.11-.23-.23-.34-.34h-.11c0-.11-.11-.11-.11-.23,0,0-.11,0-.11-.11l10.08-7.67h.11c0,.11.11.11.23.23,0,.11.11.11.23.23q.11.11.23.23c.11.11.23.11.23.23h.11c0,.11.11.11.23.23,0,0,.11.11.23.11,0,0,0,.11.11.11l.11.11c.23.11.34.23.46.34q.11,0,.23.11c.23.11.34.23.57.34.23.11.46.23.69.34.11.11.34.23.57.23.11.11.23.11.34.23.11,0,.23,0,.23.11.11,0,.34.11.46.11s.23.11.34.11c.23.11.46.11.57.23h.11c.11,0,.23,0,.34.11h.34c.11.11.23.11.34.11s.23,0,.34.11h.57c.11.11.23.11.23.11h1.03c.11,0,.23,0,.34.11h.8c.11-.11.23-.11.34-.11h1.03s.11,0,.23-.11h.57c.11-.11.34-.11.46-.11,0,0,.11,0,.23-.11h.11c.23,0,.46-.11.69-.11.23-.11.46-.23.69-.23.11,0,.23-.11.23-.11q.11,0,.23-.11t.23-.11h.34v-.11q.11,0,.23-.11h.11c.11,0,.11-.11.23-.11h.11l.23-.23c.11,0,.23-.11.34-.11.23-.11.46-.23.57-.34.11-.11.23-.11.34-.23.11,0,.23-.11.34-.11,0-.11.11-.11.23-.23.11,0,.11-.11.23-.11,0-.11.11-.11.11-.23.11,0,.23-.11.23-.11.11-.11.23-.11.34-.23,0,0,.11-.11.23-.23.34-.34.8-.69,1.15-1.03.11-.11.11-.23.23-.34.11-.11.23-.23.34-.34v-.11c.11,0,.11-.11.23-.11q0-.11.11-.23c0-.11.11-.11.23-.23.11-.11.11-.23.23-.34v-.11c.11-.11.11-.23.23-.34.11-.11.23-.23.23-.34.11-.11.23-.23.23-.46.11,0,.11-.11.11-.11.11-.23.11-.34.23-.46l.11-.11q0-.11.11-.23v-.23c.11-.11.11-.23.23-.34v-.11q.11-.11.11-.23c0-.11.11-.34.11-.46.11-.11.11-.23.11-.34.11-.11.11-.23.11-.34.23-.69.34-1.37.46-2.06.11-.69.23-1.37.23-2.06v-2.29c-4.35,2.75-9.39,4.35-14.77,4.35s-10.54-1.6-14.77-4.35c-1.72-1.03-3.32-2.29-4.7-3.67-1.95-1.95-3.66-4.24-4.92-6.76-1.95-3.78-3.09-8.13-3.09-12.71v-27.37h12.71v28.98c0,.11,0,.23.11.34v.57c0,.11.11.11.11.23,0,.23,0,.34.11.57v.34c.11,0,.11.11.11.23s0,.23.11.23v.34c.11.11.11.23.11.34.11.11.11.23.23.34,0,.11,0,.23.11.34,0,.11,0,.23.11.34.11.23.11.46.23.69.11,0,.11.11.23.23,0,.11,0,.23.11.23v.11c.11.23.23.46.34.69.11,0,.11.11.23.23,0,.11.11.23.23.34,0,0,.11.11.11.23.23.23.34.46.57.69.11.11.11.23.23.23,0,.11.11.23.11.23.23.23.46.46.57.69.11.11.23.23.34.34.11.11.23.11.34.23.11.11.23.23.34.34.11.11.34.23.46.34.11,0,.11.11.23.23q.11,0,.23.11s.11.11.23.11c0,0,0,.11.11.11.11.11.23.11.23.23h.11c.11.11.23.11.34.23.11.11.34.23.46.23q.11.11.23.11c.34.23.69.34,1.03.57.11,0,.23,0,.23.11.11,0,.34.11.46.11.11.11.23.11.23.11.23.11.57.23.8.23q.11,0,.11.11h.46c0,.11.11.11.23.11h.11c.11,0,.23.11.34.11h.34c.11.11.23.11.23.11.34,0,.57.11.92.11h2.86c.34,0,.57-.11.92-.11q.11,0,.23-.11h.46s.11-.11.23-.11h.11c.11,0,.23,0,.34-.11h.34c0-.11.11-.11.11-.11.23,0,.57-.11.8-.23q.11,0,.23-.11c.11,0,.34-.11.46-.11,0-.11.11-.11.23-.11.34-.23.69-.34,1.03-.57q.11,0,.23-.11c.11,0,.34-.11.46-.23.11-.11.23-.11.34-.23h.11q.11-.11.23-.23.11,0,.11-.11c.11,0,.23-.11.23-.11.11,0,.11-.11.11-.11.11,0,.11-.11.23-.11l.11-.11h.11c.11-.11.11-.23.23-.23.11-.11.23-.23.34-.34.11-.11.23-.11.23-.23.11-.11.34-.23.46-.34,0-.11.11-.23.23-.23,0-.11.11-.11.11-.23q.11-.11.23-.23l.11-.11q.11-.11.23-.23v-.11c.23-.11.34-.34.46-.46.11-.11.11-.23.23-.34,0-.11.11-.23.23-.23l.34-.69c0-.11.11-.11.11-.23.11-.11.11-.23.23-.34.11-.23.23-.46.34-.69l.11-.34q.11-.11.11-.23l.11-.11v-.23l.11-.11v-.11l.34-1.03q.11-.11.11-.23v-.23h.11v-.34l.23-.8v-.46c.11-.69.23-1.38.23-2.18v-27.37h12.6Z"/>
  </g>
  <path class="cls-1" d="M43.14,42.65v86.27c0,.83-.44,1.6-1.16,2.01L3.51,153.37c-1.55.91-3.51-.21-3.51-2.01v-86.27c0-.83.44-1.6,1.16-2.01l38.47-22.44c1.55-.91,3.51.21,3.51,2.01Z"/>
  <path class="cls-1" d="M22.42,22.78L63.11.29c.73-.4,1.62-.39,2.33.04l48.64,29.18c.7.42,1.13,1.18,1.13,2v54.86c0,.83-.44,1.59-1.15,2.01l-39.08,23.02c-1.55.92-3.51-.2-3.52-2.01l-.09-53.68c0-.84-.46-1.62-1.19-2.03L22.41,26.85c-1.59-.89-1.59-3.19.01-4.08Z"/>
</svg>